<svg width="400" height="400" viewBox="0 0 400 400" fill="none" xmlns="http://www.w3.org/2000/svg">
<rect width="400" height="400" rx="100" fill="url(#paint0_linear_4309_377)"/>
<path d="M300.001 287.495C300.185 267.555 290.969 258.323 281.655 255.295C273.454 252.629 256.656 255.065 244.215 248.7C232.318 242.614 225.603 226.504 225.036 208.214M249.994 300L249.993 300.125L249.994 300ZM145.623 287.5L145.622 287.625L145.623 287.5ZM295.751 137.5L295.75 137.625L295.751 137.5ZM206.249 287.5C206.249 268.75 199.999 256.25 188.309 244.936L206.249 287.5ZM255.274 177.971C268.749 187.5 281.249 193.75 301.031 187.603L255.274 177.971ZM234.099 128.034C220.034 113.969 200.956 106.067 181.065 106.067C161.174 106.067 142.098 113.969 128.032 128.034C113.967 142.099 106.065 161.176 106.065 181.068C106.065 200.958 113.967 220.035 128.032 234.1L234.099 128.034Z" fill="white"/>
<path d="M300.001 287.495C300.185 267.555 290.969 258.323 281.655 255.295C273.454 252.629 256.656 255.065 244.215 248.7C232.318 242.614 225.603 226.504 225.036 208.214M249.994 300L249.993 300.125M145.623 287.5L145.622 287.625M295.751 137.5L295.75 137.625M206.249 287.5C206.249 268.75 199.999 256.25 188.309 244.936M255.274 177.971C268.749 187.5 281.249 193.75 301.031 187.603M234.099 128.034C220.034 113.969 200.956 106.067 181.065 106.067C161.174 106.067 142.098 113.969 128.032 128.034C113.967 142.099 106.065 161.176 106.065 181.068C106.065 200.958 113.967 220.035 128.032 234.1L234.099 128.034Z" stroke="white" stroke-width="30" stroke-linecap="round" stroke-linejoin="round"/>
<defs>
<linearGradient id="paint0_linear_4309_377" x1="50" y1="337.5" x2="337.5" y2="50" gradientUnits="userSpaceOnUse">
<stop stop-color="#1677FF"/>
<stop offset="1" stop-color="#125FCC"/>
</linearGradient>
</defs>
</svg>
