<svg width="25" height="24" viewBox="0 0 25 24" fill="none" xmlns="http://www.w3.org/2000/svg">
<path fill-rule="evenodd" clip-rule="evenodd" d="M5.16304 11.0269C9.69772 9.05128 12.7221 7.74843 14.235 7.11969C18.5545 5.32293 19.4529 5.01051 20.0375 5.00014C20.1659 4.99755 20.4537 5.02996 20.6403 5.18163C20.7972 5.30997 20.8413 5.48239 20.862 5.60295C20.8828 5.72351 20.9087 5.99964 20.8879 6.21483C20.6533 8.67533 19.6408 14.6438 19.1249 17.3986C18.9071 18.564 18.478 18.9555 18.0619 18.9931C17.1583 19.0761 16.4725 18.3955 15.5975 17.8225C14.2285 16.9254 13.4546 16.3667 12.1258 15.4903C10.5896 14.4779 11.5852 13.9217 12.4603 13.013C12.6897 12.7744 16.6696 9.15499 16.7461 8.82571C16.7564 8.78423 16.7642 8.63126 16.6735 8.55088C16.5827 8.47051 16.4479 8.49773 16.352 8.51977C16.2145 8.55088 14.0276 9.99633 9.78976 12.8574C9.16881 13.2839 8.60618 13.4913 8.1032 13.481C7.54835 13.4693 6.47885 13.1672 5.68548 12.9093C4.71061 12.5929 3.93668 12.4257 4.00409 11.8877C4.03909 11.6077 4.42541 11.3212 5.16175 11.0282L5.16304 11.0269Z" fill="white"/>
</svg>
