<svg width="12" height="13" viewBox="0 0 12 13" fill="none" xmlns="http://www.w3.org/2000/svg">
<mask id="mask0_2479_1159" style="mask-type:alpha" maskUnits="userSpaceOnUse" x="0" y="0" width="12" height="13">
<rect y="0.5" width="12" height="12" fill="#D9D9D9"/>
</mask>
<g mask="url(#mask0_2479_1159)">
<path d="M2.5 11.5C2.225 11.5 1.98958 11.4021 1.79375 11.2063C1.59792 11.0104 1.5 10.775 1.5 10.5H2.5V11.5ZM1.5 9.75V8.75H2.5V9.75H1.5ZM1.5 8V7H2.5V8H1.5ZM1.5 6.25V5.25H2.5V6.25H1.5ZM1.5 4.5C1.5 4.225 1.59792 3.98958 1.79375 3.79375C1.98958 3.59792 2.225 3.5 2.5 3.5V4.5H1.5ZM3.25 11.5V10.5H4.25V11.5H3.25ZM4.5 9.5C4.225 9.5 3.98958 9.40208 3.79375 9.20625C3.59792 9.01042 3.5 8.775 3.5 8.5V2.5C3.5 2.225 3.59792 1.98958 3.79375 1.79375C3.98958 1.59792 4.225 1.5 4.5 1.5H9C9.275 1.5 9.51042 1.59792 9.70625 1.79375C9.90208 1.98958 10 2.225 10 2.5V8.5C10 8.775 9.90208 9.01042 9.70625 9.20625C9.51042 9.40208 9.275 9.5 9 9.5H4.5ZM4.5 8.5H9V2.5H4.5V8.5ZM5 11.5V10.5H6V11.5H5ZM6.75 11.5V10.5H7.75C7.75 10.775 7.65208 11.0104 7.45625 11.2063C7.26042 11.4021 7.025 11.5 6.75 11.5Z" fill="#67768C"/>
</g>
</svg>
